<svg
    xmlns="http://www.w3.org/2000/svg"
    viewBox="0 0 975 975"
    id="vector">
    <g
        id="group"
        transform="translate(-24.380953 -24.380953)">
        <path
            id="path"
            d="M 671 333 C 671 337.77 655.93 337.01 652 337.83 C 638.94 340.55 626.1 341.5 613 345.5 C 604.51 348.09 596.13 356.34 587 356 C 587 363.24 561.11 367.53 563 377 C 558.73 375.58 550.37 372.61 547 378 C 539.54 389.94 530.38 396.1 517 408 C 513.61 411.01 509.67 421.92 506 421 C 506.52 423.6 505.23 425.56 503 425 C 500.85 441.67 486.16 454.54 486 473 C 485.45 470.93 485.15 469.13 485 467 C 483.2 472.23 483.07 477.83 485 483 C 478.33 483.99 484.3 505.67 482 511 C 489.15 515.07 507.43 524.52 497.32 535.4 C 493.29 539.73 484.67 537.22 482.41 543.96 C 479.51 552.64 489.32 566.94 475 569.89 C 469.02 571.13 463.84 564.21 458.3 568.45 C 448.37 576.03 456.25 589.46 438 591.43 C 421.49 593.22 419.84 574.7 407.93 574.1 C 381.76 572.8 363.83 604.56 344 614.16 C 335.91 618.07 317.57 619.95 315.1 631.18 C 314.03 636.03 323.42 642.03 326.56 644.67 C 340.63 656.48 357.3 664.74 374 671.94 C 421.05 692.23 479.29 701.93 529 684.97 C 550.34 677.7 571.18 659.1 592 654 C 592 651.05 596.12 648.89 599 649 C 599.56 644.52 615.77 628.5 620 628 C 622.23 620.99 638.58 596.98 645 594 C 645 589.8 651.61 574.65 653 575 C 652.44 571.62 655.48 560.37 658 561 C 656.59 548.5 669.39 526.97 661.18 515.59 C 653.58 505.07 635.82 513.68 631 502 C 627.14 500.51 624.54 497.84 623 494 C 612.4 496.12 577.85 475.77 573 472 C 571.48 470.82 565.81 464.7 566 463 C 566.45 458.98 575.23 452.3 577 447 C 578.86 441.41 569.45 422.77 577 419 C 588.55 413.22 590.71 428.29 601 430 C 605.35 430.73 607.86 421.21 611 422 C 614.63 411.83 630.52 406.48 638 399 C 637.58 401.01 637.74 400.48 640 400 C 640.38 402.29 670.01 400.97 675.64 404.07 C 679.74 406.32 680.49 412.23 685.02 413.41 C 690.07 414.72 691.8 408.99 696 408 C 695.93 405.88 695.91 405.75 698 406 C 699.14 396.38 706.64 387.76 708.47 378 C 713.33 351.96 694.96 334.18 671 333 M 709 359 L 710 360 L 709 359 M 578 362 L 579 363 L 578 362 M 577 437 L 578 438 L 577 437 M 484 513 L 485 514 L 484 513 Z"
            fill="#ffffff" />
    </g>
</svg>
